<?xml version="1.0" encoding="UTF-8"?>
<!DOCTYPE svg PUBLIC "-//W3C//DTD SVG 1.0//EN" "http://www.w3.org/TR/2001/REC-SVG-20010904/DTD/svg10.dtd">
<!-- Creator: CorelDRAW 2021 (64-Bit) -->
<svg xmlns="http://www.w3.org/2000/svg" xml:space="preserve" width="874px" height="874px" version="1.0" style="shape-rendering:geometricPrecision; text-rendering:geometricPrecision; image-rendering:optimizeQuality; fill-rule:evenodd; clip-rule:evenodd"
viewBox="0 0 874 874"
 xmlns:xlink="http://www.w3.org/1999/xlink"
 xmlns:xodm="http://www.corel.com/coreldraw/odm/2003">
 <defs>
  <style type="text/css">
   <![CDATA[
    .fil0 {fill:#FEFEFE}
    .fil1 {fill:black}
    .fil3 {fill:#626262}
    .fil4 {fill:#F9F9F9}
    .fil2 {fill:white}
   ]]>
  </style>
 </defs>
 <g id="Layer_x0020_1">
  <metadata id="CorelCorpID_0Corel-Layer"/>
  <g id="_2892367923184">
   <rect class="fil0" x="-0.84" y="0.06" width="874" height="874"/>
   <g>
    <path class="fil1" d="M494.03 184.13c5.69,7.93 27.87,26.81 37.36,38.68l-38.57 -1.6 1.21 -37.08zm-244.3 -13.58c6.64,-7.34 -9.68,-5.52 12.34,-6.74l208.95 1.13c8.36,19.78 6.08,49.51 2.84,71.06 1.34,5.72 -5.97,10.25 30.76,9.89 15.74,-0.15 29.61,-0.6 45.44,0.44 -0.33,32.28 -9.18,94.84 5.25,117.5 24.63,-3.09 16.58,-22.87 16.37,-49.46 -0.16,-20.26 2.16,-54.75 -0.03,-73.1 -2.4,-20.11 -52.52,-61.89 -67.42,-77.46 -28.59,-29.87 -48.66,-19.6 -127.57,-19.6 -35.05,0 -115.16,-4.05 -144.8,2.36 -8.06,22.83 -6.78,381.55 -2.67,425.34l132.63 1.61c17.17,-5.29 5.3,4.53 12.5,-11.69 -13.93,-19.11 -75.91,-6.52 -124.34,-10.83l-0.25 -380.45z"/>
    <path class="fil1" d="M617.89 697.62l-11.94 5.57c-0.01,-0.02 -64.44,-88.27 -43.71,-96.54 9.42,-3.76 24.97,30.67 30.61,41.52 9.39,18.06 21.57,32.39 25.04,49.45zm-149.35 -316.32c52.96,-11.6 99.19,30.48 107.58,72.73 11.21,56.42 -27.78,102.2 -72.73,110.51 -123.82,22.91 -158.61,-156.13 -34.85,-183.24zm84.99 191.6c4.06,-14.46 21.44,-23.75 30.33,-37.48 9.31,-14.39 16.06,-35.25 17.1,-56.37 6.66,-135.53 -185.09,-169.87 -226.96,-43.43 -27.79,83.94 40.24,161.86 121.73,153.77 6.44,-0.65 27.65,-6.21 29.9,-6.13 4.47,0.15 2.2,-10.49 8.35,4.4 6.85,16.62 0.43,4.03 -2.16,9.99 -0.68,1.57 -3.63,0 -4.95,10.21 -1.81,13.99 62.32,117.4 69.82,123.76 19.18,-2.55 37.44,-15.82 49.68,-27.69 -2.09,-21.09 -28.92,-60.01 -39.52,-79.07 -49.58,-89.17 -28.34,-26.72 -53.32,-51.96z"/>
    <path class="fil2" d="M482.09 526.97c-21.64,-7.36 -18.26,-13.54 -34.49,-26.74 -19.55,-15.91 -37.06,-37.31 -8.61,-32.85 1.64,0.25 12.23,6.91 14.11,8.38 9.58,7.5 15.6,13.01 24.41,21.28 2.87,-2.28 3.2,-2.16 6.95,-6.36 35.06,-39.3 27.91,-68.18 62.02,-66.58 0.32,23.92 -15.47,38.6 -27.02,56.05 -9.53,14.39 -20.54,37.77 -37.37,46.82zm-13.55 -145.67c-123.76,27.11 -88.97,206.15 34.85,183.24 44.95,-8.31 83.94,-54.09 72.73,-110.51 -8.39,-42.25 -54.62,-84.33 -107.58,-72.73z"/>
    <path class="fil1" d="M281.89 290.31c18.62,11.93 215.74,12.08 235.76,0.64 -2.46,-24.89 -22.05,-17.58 -49.25,-17.32l-137.62 0.01c-25.4,-0.24 -47.12,-8.46 -48.89,16.67z"/>
    <path class="fil1" d="M482.09 526.97c16.83,-9.05 27.84,-32.43 37.37,-46.82 11.55,-17.45 27.34,-32.13 27.02,-56.05 -34.11,-1.6 -26.96,27.28 -62.02,66.58 -3.75,4.2 -4.08,4.08 -6.95,6.36 -8.81,-8.27 -14.83,-13.78 -24.41,-21.28 -1.88,-1.47 -12.47,-8.13 -14.11,-8.38 -28.45,-4.46 -10.94,16.94 8.61,32.85 16.23,13.2 12.85,19.38 34.49,26.74z"/>
    <path class="fil1" d="M445.71 203.27c-46.73,-8.2 -95.04,-3.83 -142.39,-3.67 -22.73,0 -31.21,13.96 -12.73,21.03 9.85,3.76 45.78,1.54 58.57,1.53l82.56 0.21c16.91,-3.14 12.69,-2.1 13.99,-19.1z"/>
    <path class="fil1" d="M281.51 364.4c17.8,12.14 79.94,5.82 104.32,5.82 16.25,0 11,1.88 22.96,-5.5 -0.72,-25.79 -10.65,-16.85 -100.88,-16.85 -23.94,0 -25.5,-3.36 -26.4,16.53z"/>
    <path class="fil2" d="M562.24 606.65c-20.73,8.27 43.7,96.52 43.71,96.54l11.94 -5.57c-3.47,-17.06 -15.65,-31.39 -25.04,-49.45 -5.64,-10.85 -21.19,-45.28 -30.61,-41.52z"/>
    <path class="fil3" d="M473.86 236c3.24,-21.55 5.52,-51.28 -2.84,-71.06l-208.95 -1.13c-22.02,1.22 -5.7,-0.6 -12.34,6.74l220.27 -2.56c0,19.45 -3.67,54.53 3.86,68.01z"/>
    <path class="fil1" d="M321.89 518.28c24.81,-0.32 23.54,3.2 27.49,-17.83 -12.51,-5.45 -24.32,-4.49 -41.74,-4.32 -26.33,0.26 -23,-4.22 -26.59,16.3 12.02,7.72 22.28,6.09 40.84,5.85z"/>
    <path class="fil1" d="M326.24 422.36c-27.42,0 -31.71,-3.22 -45.07,5.64 5.26,16.56 -7.44,16.15 22.01,16.15 21.58,0 31.35,2.31 46.2,-4.3 -3.49,-18.39 -0.18,-17.49 -23.14,-17.49z"/>
    <path class="fil4" d="M492.82 221.21l38.57 1.6c-9.49,-11.87 -31.67,-30.75 -37.36,-38.68l-1.21 37.08z"/>
   </g>
  </g>
 </g>
</svg>
