<?xml version="1.0" encoding="UTF-8"?>
<!DOCTYPE svg PUBLIC "-//W3C//DTD SVG 1.0//EN" "http://www.w3.org/TR/2001/REC-SVG-20010904/DTD/svg10.dtd">
<!-- Creator: CorelDRAW 2021 (64-Bit) -->
<svg xmlns="http://www.w3.org/2000/svg" xml:space="preserve" width="874px" height="874px" version="1.0" style="shape-rendering:geometricPrecision; text-rendering:geometricPrecision; image-rendering:optimizeQuality; fill-rule:evenodd; clip-rule:evenodd"
viewBox="0 0 874 874"
 xmlns:xlink="http://www.w3.org/1999/xlink"
 xmlns:xodm="http://www.corel.com/coreldraw/odm/2003">
 <defs>
  <style type="text/css">
   <![CDATA[
    .fil3 {fill:#080808}
    .fil0 {fill:#0D0D0D}
    .fil2 {fill:#FCFCFC}
    .fil1 {fill:white}
   ]]>
  </style>
 </defs>
 <g id="Layer_x0020_1">
  <metadata id="CorelCorpID_0Corel-Layer"/>
  <g id="_2263221105328">
   <path class="fil0" d="M183.08 144.57l79.92 0.11 -0.22 60.6 65.52 1.7 -0.13 483.31 -145.09 0.47 0 -546.19zm314.43 589.88c-8.65,-17.63 -10.46,-24.29 -21.79,-43.67l-121.11 -0.11 0 -483.94 65.19 -0.7 -0.34 -61.36 78.83 0 0.91 192.67c0,51.38 -9.46,124.06 19.66,167.01 26.11,-20.75 18.15,-17.2 18.11,-95.6l0.17 -238.37c0.08,-47 -2.64,-66.79 -44.16,-69l-307.68 0.2c-41.17,3.45 -40.07,28.06 -39.86,74.82 0.74,160.61 0.82,321.94 0.01,482.55 -0.47,92.92 14.32,75.26 142.06,75.26 69.83,0 140.24,-1.02 210,0.24z"/>
   <path class="fil1" d="M208.59 331.38c0,-36.91 0.94,-37.49 32.64,-37.49 51.3,0 61.99,-6.11 62.06,37.49 0.11,73.1 5.11,184.5 -3.31,252.62 -69.74,6.99 -91.39,12.4 -91.39,-32.42l0 -220.2zm-25.51 359.38l145.09 -0.47 0.13 -483.31 -65.52 -1.7 0.22 -60.6 -79.92 -0.11 0 546.19z"/>
   <path class="fil0" d="M526.01 517.78c24.87,29.58 123.61,62.26 85.29,122.84 -36.54,57.78 -99.62,-40.11 -129.98,-37.59 -19.98,172.49 161.58,225.42 227.38,102.54 72.9,-136.15 -69.59,-287.64 -182.69,-187.79z"/>
   <path class="fil0" d="M265.43 512.77c4.96,13.4 -2.57,-2.52 5.99,9.28l5.67 5.72c-6.69,9.36 -14.36,22.34 -20.43,31.8l-23.7 -34.13c37.37,-30.71 -2.2,-22.99 23.7,-38.94 11.78,14.86 3.47,11.98 8.77,26.27zm-32.72 -84.95c5.62,-9.73 15.27,-27.21 24.6,-34.58l20.32 33.36 -8.83 7.28c-20.46,30.23 12.38,23.94 -19.26,32.25l-16.83 -38.31zm-3.44 -111.01l53 1.88 -1.23 59.58 -51.78 -0.02 0.01 -61.44zm-20.68 14.57l0 220.2c0,44.82 21.65,39.41 91.39,32.42 8.42,-68.12 3.42,-179.52 3.31,-252.62 -0.07,-43.6 -10.76,-37.49 -62.06,-37.49 -31.7,0 -32.64,0.58 -32.64,37.49z"/>
   <path class="fil0" d="M405.69 451.39c11.5,7.29 35.88,21.03 44.54,34.73 -2.11,25.69 -8.32,45.2 -26.39,49.08 -11.51,2.46 -34.28,-18.53 -51.34,-26.87 9.49,113.94 92.09,65.44 107.38,70.65 25.47,8.69 103.43,102.82 124,46.4 17.25,-47.29 -56.54,-60.79 -93.77,-99.2 -16.71,-17.25 -4.53,-43.72 -31.02,-71.45 -17.23,-18.04 -59.22,-26.76 -73.4,-3.34z"/>
   <path class="fil2" d="M260.93 337.34c-2.8,-1.62 -3.64,-1.17 -7.66,-2.6l-7.99 -3.36c12.77,-8.2 -0.31,-7.2 20.55,-4.47 4.95,29.27 6.33,17.66 -7.81,29.86l8.16 12.52c0.43,-1.2 2.18,2.59 3.27,4.16l-27.27 -1.5c9.69,-24.2 12.43,-7.95 18.75,-34.61zm-31.67 40.91l51.78 0.02 1.23 -59.58 -53 -1.88 -0.01 61.44z"/>
   <path class="fil2" d="M232.71 427.82l16.83 38.31c31.64,-8.31 -1.2,-2.02 19.26,-32.25l8.83 -7.28 -20.32 -33.36c-9.33,7.37 -18.98,24.85 -24.6,34.58z"/>
   <path class="fil2" d="M232.96 525.44l23.7 34.13c6.07,-9.46 13.74,-22.44 20.43,-31.8l-5.67 -5.72c-8.56,-11.8 -1.03,4.12 -5.99,-9.28 -5.3,-14.29 3.01,-11.41 -8.77,-26.27 -25.9,15.95 13.67,8.23 -23.7,38.94z"/>
   <path class="fil3" d="M245.28 331.38l7.99 3.36c4.02,1.43 4.86,0.98 7.66,2.6 -6.32,26.66 -9.06,10.41 -18.75,34.61l27.27 1.5c-1.09,-1.57 -2.84,-5.36 -3.27,-4.16l-8.16 -12.52c14.14,-12.2 12.76,-0.59 7.81,-29.86 -20.86,-2.73 -7.78,-3.73 -20.55,4.47z"/>
  </g>
 </g>
</svg>
