<?xml version="1.0" encoding="UTF-8"?>
<!DOCTYPE svg PUBLIC "-//W3C//DTD SVG 1.0//EN" "http://www.w3.org/TR/2001/REC-SVG-20010904/DTD/svg10.dtd">
<!-- Creator: CorelDRAW 2021 (64-Bit) -->
<svg xmlns="http://www.w3.org/2000/svg" xml:space="preserve" width="874px" height="874px" version="1.0" style="shape-rendering:geometricPrecision; text-rendering:geometricPrecision; image-rendering:optimizeQuality; fill-rule:evenodd; clip-rule:evenodd"
viewBox="0 0 874 874"
 xmlns:xlink="http://www.w3.org/1999/xlink"
 xmlns:xodm="http://www.corel.com/coreldraw/odm/2003">
 <defs>
  <style type="text/css">
   <![CDATA[
    .fil0 {fill:#2B2A29}
   ]]>
  </style>
 </defs>
 <g id="Layer_x0020_1">
  <metadata id="CorelCorpID_0Corel-Layer"/>
  <g id="_2263098124896">
   <path class="fil0" d="M367.65 194.1c-4.65,-46.95 50.04,-49.12 45.55,0.62 -21.4,17.18 -24.79,17.54 -45.55,-0.62zm-94.41 4.79c-10.15,-44.86 29.4,-47.96 40.77,-29.84 15.5,24.66 -10.64,49.75 -40.77,29.84zm-97.4 0.16c-10.17,-44.68 28.89,-48.67 40.65,-29.65 15.62,25.25 -11,48.76 -40.65,29.65zm324.76 -34.6c15.47,53.11 -26.78,44.86 -35.87,36.11 -10.24,-9.85 -16.08,-52.83 35.87,-36.11zm-405.06 77.23c5.42,-6.34 -6.99,-4.23 14.81,-6.16 43.04,-3.81 479.95,0.92 483.15,1.16l0.07 523.86 27.35 -0.08 0.17 -648.53 -556.12 2.07 0.3 647.81 27.89 0.26c7.56,-25.66 2.49,-215.61 2.49,-257.99 0,-87.3 0.98,-175.17 -0.11,-262.4z"/>
   <path class="fil0" d="M334.57 739.65l-211.29 0.04c-3.96,-28.26 -3.61,-434.27 -0.33,-478.87l211.58 0.15c10.06,50.19 -7.67,164 4.2,204.27 13.69,-3.18 10.88,0.89 12.58,-15.19 0.5,-4.75 -0.42,-21.41 -0.47,-27.51 -0.29,-33.25 -2.19,-142.12 1.85,-161.57l211.1 0.01c5.27,27.74 4.74,434.84 0.98,478.76l-213.28 -0.04 -0.66 -220.08c0.04,-18.44 3.87,-18.69 -7.11,-26.03 -12.85,8.12 -7.42,16.5 -7.36,53.22 0.07,42.8 2.61,165.75 -1.79,192.84zm-227.83 11.54c21.96,6.14 453.92,5.85 472.25,-0.19l1.16 -500.76c-43.38,-8.3 -191.41,-3.64 -236.43,-3.64 -39.89,0 -210.14,-4.75 -235.26,2.79l-1.72 501.8z"/>
   <path class="fil0" d="M688.61 485.42c66.72,24.63 18.28,18.43 79.26,-0.32l-38.15 70.73 -41.11 -70.41zm0.65 -40.47c6.46,-15.4 29.57,-58.95 40.48,-71.15l38.02 70.97c-60.76,-24.08 -17.96,-22.37 -78.5,0.18zm-22.9 144.88l124.56 0 -0.2 -241.43 -124.69 0.05 0.33 241.38z"/>
   <path class="fil0" d="M681.67 344.35l114.16 -0.68 -0.36 251.34 -133.64 -0.03 0.57 -230.74c0,-20.46 -2.1,-21.84 -14.29,-30.12l0.1 255.42c0,28.56 16.48,19.95 80.07,19.95 16.96,0 33.83,0.11 50.77,0.27 26.65,0.24 29.96,2.37 29.96,-24.1l0 -233.07c0,-18.54 1.33,-22.65 -18.19,-24.13l-137.77 0.29c8.02,16.06 6.09,15.6 28.62,15.6z"/>
  </g>
 </g>
</svg>
