<?xml version="1.0" encoding="UTF-8"?>
<!DOCTYPE svg PUBLIC "-//W3C//DTD SVG 1.0//EN" "http://www.w3.org/TR/2001/REC-SVG-20010904/DTD/svg10.dtd">
<!-- Creator: CorelDRAW 2021 (64-Bit) -->
<svg xmlns="http://www.w3.org/2000/svg" xml:space="preserve" width="874px" height="874px" version="1.0" style="shape-rendering:geometricPrecision; text-rendering:geometricPrecision; image-rendering:optimizeQuality; fill-rule:evenodd; clip-rule:evenodd"
viewBox="0 0 874 874"
 xmlns:xlink="http://www.w3.org/1999/xlink"
 xmlns:xodm="http://www.corel.com/coreldraw/odm/2003">
 <defs>
  <style type="text/css">
   <![CDATA[
    .fil0 {fill:#2B2A29}
   ]]>
  </style>
 </defs>
 <g id="Layer_x0020_1">
  <metadata id="CorelCorpID_0Corel-Layer"/>
  <g id="_2263204719520">
   <path class="fil0" d="M388.61 267.52c-3.24,-32.75 34.92,-34.27 31.79,0.44 -14.94,11.98 -17.3,12.23 -31.79,-0.44zm-65.87 3.35c-7.08,-31.31 20.51,-33.46 28.45,-20.83 10.81,17.21 -7.42,34.72 -28.45,20.83zm-67.95 0.1c-7.1,-31.17 20.15,-33.95 28.35,-20.68 10.9,17.62 -7.67,34.02 -28.35,20.68zm226.59 -24.13c10.79,37.05 -18.69,31.29 -25.03,25.19 -7.14,-6.87 -11.22,-36.86 25.03,-25.19zm-282.63 53.88c3.79,-4.42 -4.87,-2.95 10.34,-4.3 30.03,-2.66 334.87,0.64 337.1,0.81l0.05 365.51 19.08 -0.06 0.12 -452.49 -388.01 1.45 0.21 451.99 19.46 0.18c5.27,-17.91 1.73,-150.43 1.73,-180 0,-60.92 0.69,-122.23 -0.08,-183.09z"/>
   <path class="fil0" d="M365.54 648.17l-147.43 0.03c-2.76,-19.72 -2.51,-303.01 -0.23,-334.12l147.62 0.1c7.02,35.02 -5.34,114.42 2.94,142.52 9.54,-2.22 7.59,0.62 8.77,-10.6 0.35,-3.31 -0.29,-14.93 -0.33,-19.19 -0.2,-23.2 -1.52,-99.16 1.3,-112.73l147.28 0.01c3.68,19.35 3.31,303.39 0.68,334.04l-148.8 -0.03 -0.46 -153.55c0.03,-12.87 2.69,-13.04 -4.96,-18.17 -8.97,5.67 -5.18,11.51 -5.14,37.14 0.05,29.86 1.82,115.64 -1.24,134.55zm-158.97 8.04c15.32,4.29 316.71,4.09 329.5,-0.12l0.81 -349.39c-30.27,-5.8 -133.56,-2.54 -164.96,-2.54 -27.83,0 -146.62,-3.32 -164.15,1.94l-1.2 350.11z"/>
   <path class="fil0" d="M612.55 470.78c46.56,17.19 12.76,12.86 55.31,-0.22l-26.62 49.35 -28.69 -49.13zm0.45 -28.23c4.51,-10.75 20.64,-41.13 28.25,-49.64l26.53 49.51c-42.39,-16.8 -12.54,-15.61 -54.78,0.13zm-15.97 101.08l86.91 0 -0.14 -168.45 -87 0.04 0.23 168.41z"/>
   <path class="fil0" d="M607.71 372.36l79.65 -0.48 -0.25 175.37 -93.24 -0.02 0.4 -160.99c0,-14.28 -1.47,-15.25 -9.98,-21.02l0.08 178.21c-0.01,19.93 11.49,13.92 55.86,13.92 11.84,0 23.6,0.08 35.43,0.19 18.59,0.17 20.9,1.65 20.9,-16.82l0 -162.61c0,-12.94 0.92,-15.81 -12.69,-16.84l-96.13 0.2c5.59,11.21 4.25,10.89 19.97,10.89z"/>
  </g>
 </g>
</svg>
