<?xml version="1.0" encoding="UTF-8"?>
<!DOCTYPE svg PUBLIC "-//W3C//DTD SVG 1.0//EN" "http://www.w3.org/TR/2001/REC-SVG-20010904/DTD/svg10.dtd">
<!-- Creator: CorelDRAW 2021 (64-Bit) -->
<svg xmlns="http://www.w3.org/2000/svg" xml:space="preserve" width="874px" height="874px" version="1.0" style="shape-rendering:geometricPrecision; text-rendering:geometricPrecision; image-rendering:optimizeQuality; fill-rule:evenodd; clip-rule:evenodd"
viewBox="0 0 874 874"
 xmlns:xlink="http://www.w3.org/1999/xlink"
 xmlns:xodm="http://www.corel.com/coreldraw/odm/2003">
 <defs>
  <style type="text/css">
   <![CDATA[
    .fil0 {fill:#FEFEFE}
    .fil1 {fill:black}
    .fil2 {fill:white}
   ]]>
  </style>
 </defs>
 <g id="Layer_x0020_1">
  <metadata id="CorelCorpID_0Corel-Layer"/>
  <g id="_2892128212384">
   <rect class="fil0" x="-0.84" y="0.06" width="874" height="874"/>
   <g>
    <path class="fil1" d="M380.75 8.22c-361.52,47.35 -520.34,501.87 -219.92,762.06 70.75,61.28 203.17,115.44 333.37,95.3 242.05,-37.43 404.36,-257.35 370.78,-487.07 -31.69,-216.73 -226.35,-404.06 -484.23,-370.29z"/>
    <path class="fil2" d="M171.19 209.52c7.12,18.53 19.35,32.84 31.15,48.18 17.58,22.86 27.47,18.56 57.87,13.11 16.83,24.49 80,76.72 107.49,113.71 -10.92,21.12 -15.85,6.09 -12.93,40.51 1.63,19.16 -4.16,19.2 -17.89,33.23 -9.91,10.12 -48.77,52.61 -59.62,56.39 -38.24,13.33 -50.93,-7.17 -84.44,28.67 -17.34,18.53 -33.26,60.57 -16.3,90.05 16.79,-3.01 45,-34.72 52.39,-45.68 35.23,1.73 42.38,8.78 46.56,42.66 -14.22,12.5 -42.93,36.28 -45.04,57.74 51.74,18.68 101.55,-14.82 113.61,-55.94 13.33,-45.48 -12.71,-32.42 21.83,-65.77 16.61,-16.04 28.9,-31.88 47.3,-45.48 14.61,6.49 18.1,13.45 31.91,27.52 10.61,10.8 18.29,18.59 29.03,29.32 126.64,126.59 121.8,154.79 189.99,86.87 14.92,-14.86 51.68,-42.74 28.65,-71.97l-114.61 -118.93c-17.44,-17.51 -41.38,-45.19 -58.92,-58.61 12.46,-17.73 28.92,-30.53 44.59,-46.61 36.86,-37.85 18.78,-8.56 68.11,-23.52 20.43,-6.2 40.56,-24.15 50.2,-41.32 10.42,-18.54 17.33,-53.29 1.88,-72.4 -19.54,5 -40.5,30.6 -54.16,45.15 -49.64,-2.68 -43.19,-41.47 -40.99,-45.51 8.47,-15.59 41.84,-32.38 43.4,-52.95 -47.74,-27.24 -110.71,18.92 -115.72,69.13 -5.25,52.61 -19.18,46.6 -82.53,111.84 -8.02,-1.88 -16.87,-5.61 -28,-3.01l-21.99 13.6c-34.08,-19.73 -78.55,-85.04 -113.9,-108.58 5.81,-30.29 9.57,-40.45 -12.7,-58.19 -12.37,-9.85 -33.41,-24.46 -48.4,-30.82 -14.05,6.88 -31.3,23.56 -37.82,37.61z"/>
    <path class="fil1" d="M191.42 598.8c11.95,-5.79 8.65,-3.5 18.38,-13.78 4.76,-5.05 9.94,-12.3 14.51,-17.06 51.45,0.47 64.68,20.74 73.06,66.55l-34.12 36.53c33.02,0.56 51.09,-15.2 61.14,-37.85 35.55,-80.11 -66.92,15.29 128.33,-179.96 35.02,-35.02 67.57,-66.71 102.04,-102.13 39.49,-40.57 31.37,-7.34 75.51,-24.56 24.48,-9.55 40.4,-28.77 41.07,-62.11 -25.12,17.93 -26.59,39.61 -64.85,26.94 -21.6,-7.16 -22.08,-2.91 -29.52,-20.58 -6.27,-14.89 -10.42,-29.5 -9.93,-46.49 15.83,-9.13 24.69,-18.12 30.34,-33.84 -76.26,7 -63.22,80.69 -64.59,89.53 -2.66,17.23 -197.05,196.73 -224.28,229.03 -38.43,45.59 -24.62,12.42 -72.32,27.59 -27.18,8.64 -42.13,28.75 -44.77,62.19z"/>
    <path class="fil1" d="M488.93 443.34c7.09,13.51 128.86,133.08 158.43,161.4 16.39,15.69 16.17,9.91 7.88,26.11 -18.15,-2.06 -27.08,-17.6 -48.92,-39.49 -25.18,-25.23 -119.85,-123.46 -135.11,-132.14l-11.7 13.32c9.3,16.91 67.67,70.17 85.56,88.38 15.43,15.71 28.11,28.26 43.67,43.85l33.64 33.05c12.51,15.2 6.02,-0.06 7.75,17.57l-9.48 6.82c-37.52,-26.72 -149.63,-157.94 -178.69,-173.53l-13.61 15.98c12.83,21.98 67.88,71.06 89.07,92.27 17.61,17.62 75.2,80.57 96.87,86.69 18.61,-12.33 58.08,-51.89 68.52,-69.94 -6.36,-22.93 -162.85,-176.29 -177.97,-184.11l-15.91 13.77z"/>
    <path class="fil1" d="M192.17 208.09c4.73,14 10.89,20 19.28,32.33 11.4,16.75 15.68,20.05 36.99,12.78 0,-4.88 20.77,-17.61 -4.1,-37.38 -8.2,-6.52 -25.61,-18.95 -36.73,-22.97l-15.44 15.24z"/>
   </g>
  </g>
 </g>
</svg>
